<svg width="21" height="20" viewBox="0 0 21 20" fill="none" xmlns="http://www.w3.org/2000/svg">
<path d="M10.5005 0.5C4.97549 0.5 0.500488 4.86167 0.500488 10.2411C0.500488 14.5457 3.36549 18.1962 7.33799 19.4832C7.83799 19.5749 8.02132 19.2734 8.02132 19.0148C8.02132 18.7835 8.01299 18.1706 8.00882 17.3585C5.22715 17.9459 4.64049 16.0517 4.64049 16.0517C4.18549 14.9274 3.52799 14.6267 3.52799 14.6267C2.62215 14.0228 3.59799 14.0352 3.59799 14.0352C4.60215 14.103 5.12965 15.0389 5.12965 15.0389C6.02132 16.5283 7.47049 16.0979 8.04215 15.8493C8.13215 15.219 8.38966 14.7903 8.67549 14.5466C6.45466 14.3029 4.12049 13.4652 4.12049 9.73304C4.12049 8.66988 4.50799 7.80085 5.14965 7.11934C5.03715 6.87317 4.69966 5.8827 5.23715 4.54116C5.23715 4.54116 6.07466 4.28012 7.98715 5.53988C8.78716 5.32345 9.63715 5.21606 10.4872 5.2111C11.3372 5.21606 12.1872 5.32345 12.9872 5.53988C14.8872 4.28012 15.7247 4.54116 15.7247 4.54116C16.2622 5.8827 15.9247 6.87317 15.8247 7.11934C16.4622 7.80085 16.8497 8.66988 16.8497 9.73304C16.8497 13.4752 14.5122 14.2987 12.2872 14.5383C12.6372 14.8307 12.9622 15.428 12.9622 16.3408C12.9622 17.6444 12.9497 18.6918 12.9497 19.0082C12.9497 19.2635 13.1247 19.5683 13.6372 19.4708C17.638 18.192 20.5005 14.5391 20.5005 10.2411C20.5005 4.86167 16.023 0.5 10.5005 0.5Z" fill="white"/>
</svg>
