<svg width="20" height="20" viewBox="0 0 20 20" fill="none" xmlns="http://www.w3.org/2000/svg">
<path d="M13.7502 0H6.25024C2.79899 0 0.000244141 2.79875 0.000244141 6.25V13.75C0.000244141 17.2013 2.79899 20 6.25024 20H13.7502C17.2015 20 20.0002 17.2013 20.0002 13.75V6.25C20.0002 2.79875 17.2015 0 13.7502 0ZM18.1252 13.75C18.1252 16.1625 16.1627 18.125 13.7502 18.125H6.25024C3.83774 18.125 1.87524 16.1625 1.87524 13.75V6.25C1.87524 3.8375 3.83774 1.875 6.25024 1.875H13.7502C16.1627 1.875 18.1252 3.8375 18.1252 6.25V13.75Z" fill="white"/>
<path d="M10.0002 5C7.23899 5 5.00024 7.23875 5.00024 10C5.00024 12.7613 7.23899 15 10.0002 15C12.7615 15 15.0002 12.7613 15.0002 10C15.0002 7.23875 12.7615 5 10.0002 5ZM10.0002 13.125C8.27774 13.125 6.87524 11.7225 6.87524 10C6.87524 8.27625 8.27774 6.875 10.0002 6.875C11.7227 6.875 13.1252 8.27625 13.1252 10C13.1252 11.7225 11.7227 13.125 10.0002 13.125Z" fill="white"/>
<path d="M15.3752 5.29123C15.7432 5.29123 16.0415 4.99295 16.0415 4.62499C16.0415 4.25703 15.7432 3.95874 15.3752 3.95874C15.0073 3.95874 14.709 4.25703 14.709 4.62499C14.709 4.99295 15.0073 5.29123 15.3752 5.29123Z" fill="white"/>
</svg>
