<svg width="30" height="30" viewBox="0 0 32 32" fill="none" xmlns="http://www.w3.org/2000/svg">
<circle cx="16.2128" cy="16.2132" r="15" transform="rotate(1.42349 16.2128 16.2132)" fill="#5A30F0"/>
<g clip-path="url(#clip0)">
<path fill-rule="evenodd" clip-rule="evenodd" d="M15.0641 22.1865C15.0504 22.7387 15.4869 23.1974 16.039 23.2111C16.5911 23.2248 17.0498 22.7883 17.0635 22.2362L17.1877 17.2378L22.1862 17.362C22.7383 17.3757 23.197 16.9392 23.2107 16.3871C23.2244 15.835 22.788 15.3763 22.2359 15.3626L17.2374 15.2384L17.3616 10.2399C17.3753 9.68782 16.9389 9.22912 16.3868 9.2154C15.8346 9.20168 15.3759 9.63813 15.3622 10.1902L15.238 15.1887L10.2396 15.0645C9.68744 15.0508 9.22874 15.4872 9.21502 16.0393C9.2013 16.5915 9.63776 17.0502 10.1899 17.0639L15.1883 17.1881L15.0641 22.1865Z" fill="white"/>
</g>
<defs>
<clipPath id="clip0">
<rect width="12" height="12" fill="white" transform="translate(22.062 22.3604) rotate(-178.577)"/>
</clipPath>
</defs>
</svg>
