<svg width="25" height="25" viewBox="0 0 25 25" fill="none" xmlns="http://www.w3.org/2000/svg">
<path d="M22.5 3.75H11.25V4.58333H22.5V3.75Z" fill="white"/>
<path d="M18.3333 5.41663H11.25V6.24996H18.3333V5.41663Z" fill="white"/>
<path d="M18.3333 7.08337H11.25V7.91671H18.3333V7.08337Z" fill="white"/>
<path d="M22.5002 2.08337H14.5835V2.91671H22.5002V2.08337Z" fill="white"/>
<path d="M13.7498 2.08337H12.9165V2.91671H13.7498V2.08337Z" fill="white"/>
<path d="M12.9168 16.6666H12.0835V17.5H12.9168V16.6666Z" fill="white"/>
<path d="M6.96149 2.79461L6.37232 2.20544L5.53898 3.03878C5.37633 3.20149 5.37633 3.46524 5.53898 3.62794L6.37232 4.46128L6.96149 3.87211L6.42273 3.33336L6.96149 2.79461Z" fill="white"/>
<path d="M10.2946 3.03878L9.46124 2.20544L8.87207 2.79461L9.41082 3.33336L8.87207 3.87211L9.46124 4.46128L10.2946 3.62794C10.4572 3.46524 10.4572 3.20149 10.2946 3.03878Z" fill="white"/>
<path d="M7.93811 1.95109L7.104 4.45105L7.89411 4.71467L8.72822 2.21471L7.93811 1.95109Z" fill="white"/>
<path d="M21.6668 12.9167V9.58333H20.8335V12.9167H20.0002V8.75H19.1668V12.9167H18.3335V10.8333H17.5002V12.9167H16.6668V10.4167H15.8335V12.9167H15.0002V11.25H14.1668V12.9167H13.3335V13.75H22.5002V12.9167H21.6668Z" fill="white"/>
<path d="M22.0832 0H2.9165C1.53635 0.00135417 0.417858 1.11984 0.416504 2.5V10.6775V10.6812V15.4167V16.6667C0.417858 18.0468 1.53635 19.1653 2.9165 19.1667H8.07567L6.409 22.5H4.1665C3.47614 22.5 2.9165 23.0596 2.9165 23.75C2.9165 24.4404 3.47614 25 4.1665 25H20.8332C21.5235 25 22.0832 24.4404 22.0832 23.75C22.0832 23.0596 21.5235 22.5 20.8332 22.5H18.5907L16.924 19.1667H22.0832C23.4633 19.1653 24.5818 18.0468 24.5832 16.6667V2.5C24.5818 1.11984 23.4633 0.00135417 22.0832 0ZM1.24984 5.8625L2.19692 6.99C2.27609 7.08432 2.39296 7.13875 2.51609 7.13875H3.7915C3.91463 7.13875 4.0315 7.08432 4.11067 6.99L5.05817 5.8625L5.99317 6.16625L6.0965 7.63417C6.10505 7.75693 6.16744 7.86964 6.26692 7.94208L7.299 8.69208C7.39885 8.76417 7.52531 8.7887 7.64484 8.75917L9.07525 8.40375L9.65359 9.19917L8.874 10.4492C8.80942 10.554 8.79447 10.6819 8.83317 10.7987L9.22775 12.0117C9.26572 12.1286 9.35338 12.2229 9.46734 12.2692L10.8332 12.8229V13.8062L9.4665 14.36C9.35228 14.406 9.26447 14.5006 9.22692 14.6179L9.10192 15H6.7015C7.63525 13.045 6.80734 10.7032 4.85234 9.76943C3.70406 9.22099 2.36104 9.26359 1.24984 9.88375V5.8625ZM1.24984 10.875C2.59755 9.82359 4.54244 10.0638 5.5938 11.4116C6.40557 12.4521 6.46822 13.8929 5.74984 15H1.24984V10.875ZM20.8332 23.3333C21.0633 23.3333 21.2498 23.5199 21.2498 23.75C21.2498 23.9801 21.0633 24.1667 20.8332 24.1667H4.1665C3.9364 24.1667 3.74984 23.9801 3.74984 23.75C3.74984 23.5199 3.9364 23.3333 4.1665 23.3333H20.8332ZM17.659 22.5H7.34067L9.00734 19.1667H15.9923L17.659 22.5ZM23.7498 16.6667C23.7498 17.5871 23.0036 18.3333 22.0832 18.3333H2.9165C1.99604 18.3333 1.24984 17.5871 1.24984 16.6667V15.8333H5.96734H5.97109H23.7498V16.6667ZM23.7498 15H10.1061L11.4065 14.4729C11.5636 14.4092 11.6664 14.2566 11.6665 14.0871V12.5417C11.6666 12.372 11.5637 12.2192 11.4065 12.1554L9.95817 11.5696L9.684 10.7258L10.5098 9.40083C10.5994 9.25688 10.5928 9.07302 10.4932 8.93583L9.58484 7.68583C9.4851 7.54849 9.31208 7.48536 9.14734 7.52625L7.63234 7.90125L6.9165 7.38125L6.80692 5.82708C6.79499 5.65766 6.6814 5.5124 6.51984 5.46L5.05109 4.9825C4.88947 4.93104 4.71281 4.98182 4.60317 5.11125L3.60025 6.305H2.7115L1.70817 5.11125C1.59848 4.98167 1.42156 4.93083 1.25984 4.9825L1.24984 4.98625V2.5C1.24984 1.57953 1.99604 0.833333 2.9165 0.833333H22.0832C23.0036 0.833333 23.7498 1.57953 23.7498 2.5V15Z" fill="white"/>
</svg>
