<svg width="21" height="25" viewBox="0 0 21 25" fill="none" xmlns="http://www.w3.org/2000/svg">
<path d="M17.7166 16.333L16.2493 15.9022L13.0571 13.8172V13.3394C13.9814 12.6423 14.616 11.5767 14.734 10.3553C15.1975 10.2807 15.5526 9.87789 15.5526 9.39371V8.07999C15.5526 8.07491 15.5521 8.06993 15.5519 8.06486V6.4007C15.7365 6.26847 15.8537 6.05309 15.8537 5.81149V4.28854L18.0567 3.91329C18.4188 3.85162 18.6791 3.56407 18.7047 3.19772C18.7302 2.83136 18.5123 2.51046 18.1623 2.39918L10.7357 0.0369751C10.5807 -0.0123413 10.417 -0.0122925 10.2622 0.0369263L2.83545 2.39918C2.4855 2.51046 2.26753 2.83136 2.29307 3.19767C2.30928 3.43043 2.42051 3.63112 2.59219 3.76256V5.75411H2.57402C2.15581 5.75411 1.81558 6.09435 1.81558 6.51256V7.50113L1.32598 10.3748C1.24136 10.8718 1.62417 11.3267 2.12954 11.3267H3.78721C4.29146 11.3267 4.67559 10.8729 4.59077 10.3747L4.10117 7.50113V6.51256C4.10117 6.09435 3.76094 5.75411 3.34273 5.75411H3.32461V3.97858L5.14561 4.28873V5.81149C5.14561 6.05206 5.26226 6.2671 5.44605 6.39952L5.44673 8.08014V9.39371C5.44673 9.87794 5.80186 10.2807 6.26538 10.3553C6.3833 11.576 7.01729 12.6411 7.94063 13.3383V13.8183L4.74912 15.9029L3.28306 16.3332C1.71426 16.7937 0.606543 18.2339 0.606543 19.9082V20.9996C0.606543 21.2018 0.770459 21.3658 0.972754 21.3658C1.17505 21.3658 1.33896 21.2019 1.33896 20.9996V19.9082C1.33896 18.5886 2.22319 17.4075 3.48936 17.0359L4.85537 16.635L10.3127 19.8778C10.4235 19.9436 10.5701 19.9471 10.6868 19.8778L16.1445 16.6348L17.5104 17.0358C18.7763 17.4074 19.6605 18.5885 19.6605 19.9079V23.4449C19.6605 23.8986 19.2915 24.2677 18.8378 24.2677H17.2237V22.6892C17.2237 22.4869 17.0598 22.323 16.8575 22.323C16.6552 22.323 16.4913 22.4869 16.4913 22.6892V24.2677H4.50649V22.6892C4.50649 22.4869 4.34258 22.323 4.14028 22.323C3.93799 22.323 3.77407 22.4869 3.77407 22.6892V24.2677H2.16162C1.70796 24.2677 1.33887 23.8986 1.33887 23.4449V22.7114C1.33887 22.5092 1.17495 22.3452 0.972656 22.3452C0.770361 22.3452 0.606445 22.5091 0.606445 22.7114V23.4449C0.606445 24.3024 1.30405 25 2.16157 25H18.8377C19.6952 25 20.3928 24.3024 20.3928 23.4449V19.9079C20.3928 18.2731 19.3229 16.8046 17.7166 16.333ZM3.78716 10.5943H2.12954C2.07832 10.5943 2.03926 10.5485 2.04795 10.4977L2.49082 7.8983H3.42588L3.86875 10.4977C3.87739 10.5484 3.83862 10.5943 3.78716 10.5943ZM3.36875 6.51256V7.16593H2.5479V6.51256C2.5479 6.49816 2.55957 6.48649 2.57397 6.48649H3.34263C3.35708 6.48644 3.36875 6.49816 3.36875 6.51256ZM9.18994 18.2213L9.33569 18.4453L5.59697 16.2237L7.97007 14.6737C8.07769 15.9364 8.4939 17.1515 9.18994 18.2213ZM9.1874 16.6404C10.0494 16.7629 10.9495 16.763 11.8119 16.6404C11.6453 17.0505 11.4399 17.4462 11.1955 17.8219L10.4997 18.8914L9.80381 17.8219C9.55943 17.4462 9.35405 17.0505 9.1874 16.6404ZM11.8094 18.2213C12.5054 17.1515 12.9216 15.9364 13.0292 14.6737L15.4023 16.2237L11.6636 18.4453L11.8094 18.2213ZM13.9515 6.53707H14.8195V7.71373H14.3887C14.1476 7.71373 13.9515 7.51764 13.9515 7.27657V6.53707H13.9515ZM3.05742 3.09713L10.4842 0.734827C10.4938 0.731799 10.504 0.73175 10.5137 0.734876L17.9404 3.09713C17.9558 3.10201 17.9768 3.10865 17.9741 3.14679C17.9714 3.18488 17.9497 3.18854 17.9338 3.19127L15.4783 3.60948L14.5564 3.49547C14.3559 3.47062 14.173 3.61329 14.1481 3.81398C14.1233 4.01471 14.2659 4.19752 14.4666 4.22233L15.1214 4.30333V5.8047L5.87798 5.80436V4.30328L9.66738 3.83439C10.2193 3.76617 10.7789 3.76617 11.3305 3.83439L12.7647 4.01178C12.9654 4.03663 13.1482 3.89401 13.1731 3.69332C13.198 3.49259 13.0553 3.30978 12.8546 3.28492L11.4204 3.10753C10.8092 3.0319 10.1891 3.0319 9.57749 3.10753L5.52017 3.60958L3.06397 3.19127C3.04805 3.18854 3.02632 3.18488 3.02363 3.14679C3.021 3.10865 3.04204 3.10197 3.05742 3.09713ZM6.17891 7.71373L6.17842 6.53707H7.0478V7.27662C7.0478 7.51764 6.85171 7.71378 6.6106 7.71378H6.17891V7.71373ZM6.98491 10.1671C6.96607 9.86886 6.71821 9.63527 6.4207 9.63527C6.28745 9.63527 6.17905 9.52687 6.17905 9.39366V8.44615H6.6106C7.25547 8.44615 7.78018 7.9215 7.78018 7.27662V6.53707H13.2191V7.27662C13.2191 7.9215 13.7438 8.44615 14.3887 8.44615H14.8202V9.39366C14.8202 9.52687 14.7118 9.63527 14.5786 9.63527C14.2811 9.63527 14.0332 9.86886 14.0144 10.1671C13.8977 12.0162 12.3539 13.4647 10.4996 13.4647C8.64536 13.4647 7.10156 12.0162 6.98491 10.1671ZM10.4997 14.197C11.151 14.197 11.77 14.0481 12.3248 13.7833V14.0154C12.3248 14.6415 12.2403 15.2591 12.0776 15.8548C11.0824 16.0446 9.95728 16.0523 8.92168 15.8548C8.75903 15.2592 8.67456 14.6416 8.67456 14.0154C8.67456 14.0076 8.67349 14.0001 8.673 13.9924C8.6729 13.9909 8.67305 13.9894 8.67295 13.9879V13.7826C9.22808 14.0478 9.84771 14.197 10.4997 14.197Z" fill="white"/>
</svg>
