<svg width="162" height="47" viewBox="0 0 162 47" fill="none" xmlns="http://www.w3.org/2000/svg">
<path d="M150.185 20.098L150.185 20.098V20.096C150.186 20.0922 150.187 20.0861 150.189 20.0779C150.193 20.0664 150.197 20.0539 150.202 20.0415C150.562 19.9897 150.987 19.9936 151.115 20.0115L151.184 20.0163C152.595 20.0163 153.691 20.2738 154.423 20.7948C155.125 21.294 155.558 22.0823 155.558 23.3277C155.558 24.425 155.125 25.3136 154.322 25.7172C153.995 25.8522 153.348 26.0134 152.165 26.0134C151.443 26.0134 150.63 25.9946 150.127 25.9729C150.13 23.9442 150.157 21.1731 150.185 20.098ZM149.8 25.9564C149.809 25.9564 149.818 25.9567 149.827 25.9573L149.8 25.9564ZM150.877 35.6887L150.847 35.6736C150.733 35.6209 150.575 35.4704 150.429 35.223C150.29 34.9869 150.204 34.7317 150.183 34.5465C150.115 33.5478 150.12 31.2844 150.125 29.3797C150.126 29.0421 150.126 28.7158 150.127 28.4098C150.151 28.4087 150.177 28.4077 150.205 28.4068C150.353 28.4017 150.531 28.3999 150.708 28.3999C150.886 28.3999 151.06 28.4017 151.201 28.4034C151.246 28.404 151.289 28.4046 151.327 28.4051C151.407 28.4062 151.47 28.407 151.501 28.407C153.347 28.407 154.704 28.788 155.587 29.4429C156.448 30.0812 156.913 31.0192 156.913 32.2873C156.913 33.6305 156.462 34.529 155.806 35.0989C155.138 35.6788 154.199 35.9683 153.145 35.9683C152.751 35.9683 152.273 35.9544 151.836 35.9073C151.378 35.8579 151.041 35.7789 150.877 35.6887ZM144.09 17.509L143.816 17.591C143.724 17.6515 143.656 17.7327 143.62 17.7784C143.575 17.8349 143.532 17.8989 143.492 17.963C143.411 18.0919 143.328 18.2468 143.257 18.4005C143.188 18.5513 143.121 18.7203 143.082 18.8746C143.063 18.9497 143.045 19.045 143.045 19.1442C143.045 19.222 143.055 19.4257 143.22 19.5881L143.507 19.728C144.158 19.8116 144.942 19.9221 145.423 20.0049C145.687 20.0782 145.797 20.1533 145.859 20.2307C145.924 20.3121 146 20.4768 146.013 20.8679C146.03 21.565 146.026 22.7125 146.02 24.2998C146.017 25.2859 146.013 26.4419 146.013 27.7649C146.013 30.2716 146.012 33.7611 145.956 34.7515C145.928 35.0379 145.903 35.2469 145.872 35.4082C145.84 35.5719 145.807 35.653 145.782 35.6966C145.756 35.7406 145.716 35.8053 145.35 35.8988L145.326 35.9058C144.84 36.0571 144.488 36.0834 143.976 36.1115L143.681 36.2288C143.55 36.339 143.448 36.5129 143.383 36.6336C143.305 36.7772 143.23 36.9462 143.17 37.1121C143.111 37.2721 143.057 37.4579 143.04 37.6281C143.032 37.7098 143.027 37.8271 143.06 37.9485C143.095 38.0772 143.193 38.2731 143.426 38.3596L143.613 38.3906C144.994 38.3547 147.035 38.4088 148.741 38.454C149.752 38.4807 150.645 38.5044 151.213 38.5044C153.174 38.5044 155.155 38.275 156.774 37.5824L156.775 37.5819C159.384 36.4576 161.316 34.5834 161.316 31.5763C161.316 30.0389 160.721 28.843 159.79 27.9603C159.13 27.334 158.309 26.8735 157.431 26.5482C158.778 25.6845 159.759 24.3112 159.759 22.6166C159.759 20.5744 158.785 19.272 157.466 18.5078C156.18 17.7633 154.588 17.5375 153.289 17.5375C152.269 17.5375 151.341 17.5515 150.412 17.5656L150.391 17.5659C149.453 17.5801 148.512 17.5942 147.464 17.5942C146.361 17.5942 145.596 17.573 145.073 17.552C144.849 17.543 144.659 17.5335 144.505 17.5256C144.314 17.516 144.176 17.509 144.09 17.509ZM127.758 35.3064L127.725 35.2828C127.622 35.2148 127.515 35.0783 127.433 34.88C127.352 34.6849 127.316 34.4795 127.316 34.3351L127.312 34.2681C127.302 34.1978 127.291 33.9234 127.283 33.4604C127.275 33.0156 127.269 32.4332 127.266 31.7797C127.258 30.473 127.258 28.8889 127.258 27.5659C127.258 26.2856 127.258 24.5518 127.266 23.0671C127.273 21.5952 127.287 20.4136 127.312 20.1254C127.318 20.1142 127.327 20.0992 127.339 20.0812C127.352 20.0625 127.366 20.0451 127.378 20.0304C127.492 19.9904 127.653 19.9574 127.866 19.9357C128.117 19.9099 128.407 19.9027 128.719 19.9027C130.803 19.9027 132.546 20.2648 133.88 21.0808L133.882 21.082C136.24 22.5092 137.419 24.9438 137.419 28.0209C137.419 31.2587 136.396 33.2187 134.99 34.4741C133.614 35.7012 132.194 35.9683 130.709 35.9683C130.132 35.9683 129.527 35.9139 128.991 35.7983C128.445 35.6805 128.018 35.5091 127.758 35.3064ZM127.316 20.0568C127.316 20.0696 127.315 20.081 127.314 20.0908L127.316 20.0568ZM120.904 17.509L120.522 17.6864C120.412 17.8168 120.225 18.1213 120.086 18.4004C120.014 18.5446 119.941 18.707 119.895 18.8586C119.872 18.9337 119.85 19.0236 119.842 19.1174C119.836 19.1986 119.834 19.3563 119.924 19.5112L120.304 19.7578C121.086 19.8403 121.643 19.9501 122.072 20.0346L122.076 20.0353C122.076 20.0353 122.076 20.0354 122.077 20.0354C122.498 20.1186 122.701 20.2055 122.818 20.314C122.916 20.4048 123.02 20.5734 123.058 21.0009C123.102 21.9141 123.095 24.3007 123.089 26.2271C123.088 26.8089 123.086 27.3488 123.086 27.7934C123.086 28.347 123.087 28.886 123.089 29.41C123.093 31.423 123.097 33.2147 123.03 34.7589C122.985 35.2914 122.938 35.5375 122.869 35.6781C122.829 35.7621 122.775 35.8286 122.545 35.9151L122.544 35.9156C122.234 36.033 122.09 36.0567 121.338 36.1424L121.338 36.1424L121.333 36.1429C121.147 36.1659 121.02 36.271 120.958 36.3294C120.887 36.397 120.829 36.4747 120.785 36.5443C120.694 36.6852 120.615 36.8559 120.554 37.0214C120.493 37.1877 120.442 37.3718 120.417 37.5446C120.405 37.6309 120.397 37.7261 120.403 37.8215C120.408 37.9101 120.427 38.0391 120.497 38.1644L120.933 38.4189H120.959C121.939 38.4289 122.992 38.4424 124.031 38.4558C125.95 38.4804 127.82 38.5044 129.094 38.5044C132.866 38.5044 135.571 37.6308 137.663 36.1059C139.762 34.6055 141.85 31.9892 141.85 27.5089C141.85 24.3609 140.7 21.7421 138.473 19.8467L138.473 19.8467L138.471 19.8442C136.628 18.3 134.082 17.509 131.113 17.509C129.392 17.509 128.206 17.5304 127.223 17.5517C127.068 17.5551 126.918 17.5585 126.772 17.5617C125.993 17.5792 125.326 17.5942 124.567 17.5942C124.071 17.5942 123.3 17.5732 122.577 17.5518C122.469 17.5486 122.362 17.5454 122.256 17.5423C121.668 17.5247 121.145 17.509 120.904 17.509Z" fill="#8E714E" stroke="white" stroke-linejoin="bevel"/>
<mask id="path-2-outside-1" maskUnits="userSpaceOnUse" x="24.8315" y="23.6077" width="95" height="24" fill="black">
<rect fill="white" x="24.8315" y="23.6077" width="95" height="24"/>
<path fill-rule="evenodd" clip-rule="evenodd" d="M86.0104 36.8097C85.2894 36.7243 84.7703 36.6107 84.1357 36.3262C84.0494 36.2692 83.905 35.985 83.905 35.8711C83.8473 34.8756 83.8473 32.0313 83.8473 30.1256C83.8473 28.5896 83.588 27.2529 82.9245 26.3143C82.1458 25.2333 81.0213 24.6077 79.5794 24.6077C78.3104 24.6077 76.609 25.4611 75.196 26.6557C75.1671 26.6839 74.9364 26.8832 74.9653 26.5703C74.9653 26.2573 75.023 25.6317 75.0519 25.2051C75.0807 24.8067 74.8501 24.6077 74.8501 24.6077C73.927 25.0627 71.3317 25.6602 70.38 25.7453C69.688 25.8877 69.515 26.5418 70.236 26.7693H70.2648C71.0432 26.9969 71.5624 27.2529 71.966 27.5089C72.2544 27.7364 72.2256 28.0494 72.2256 28.3054C72.2544 30.4386 72.2544 33.7095 72.1681 35.5015C72.1392 36.2126 71.9374 36.4683 71.4183 36.5822L71.4758 36.5537C71.0721 36.6392 70.7548 36.7243 70.2646 36.7813C70.0916 36.9518 70.0916 37.8622 70.2646 38.0613C70.5819 38.0613 72.2544 37.9759 73.6389 37.9759C75.5421 37.9759 76.5226 38.0613 77.0129 38.0613C77.2147 37.8338 77.2724 36.9803 77.157 36.7813C76.609 36.7528 76.2053 36.6961 75.8306 36.5822C75.3114 36.4683 75.1671 36.2126 75.1382 35.6151C75.0807 34.1076 75.0807 30.9221 75.0807 28.7604C75.0807 28.163 75.2537 27.8785 75.4267 27.7079C76.0899 27.1393 77.157 26.7409 78.1086 26.7409C79.0314 26.7409 79.6371 27.0254 80.0985 27.3953C80.7328 27.907 80.9346 28.6465 81.0213 29.187C81.1653 30.4101 81.1079 32.8278 81.1079 34.9325C81.1079 36.0702 81.0213 36.3547 80.5887 36.4968C80.3869 36.5822 79.8678 36.6961 79.2621 36.7528C79.0602 36.9518 79.118 37.8338 79.2621 38.0328C80.0985 38.0328 81.079 37.9474 82.5209 37.9474C84.3087 37.9474 85.4624 38.0328 85.9238 38.0328C86.0679 37.8622 86.1256 37.0373 86.0101 36.8097H86.0104ZM93.9985 25.9446C92.47 25.9446 91.5184 27.1108 91.5184 28.931C91.5184 30.7798 92.3545 32.913 94.7195 32.913C95.1231 32.913 95.8729 32.7424 96.2188 32.3443C96.7668 31.8323 97.1419 30.8082 97.1419 29.7275C97.1419 27.3668 95.9593 25.9446 93.9985 25.9446ZM93.7964 38.5164C93.2198 38.5164 92.8159 38.6869 92.5566 38.8293C91.3452 39.5971 90.7974 40.3366 90.7974 41.2185C90.7974 42.0432 91.1145 42.6973 91.8068 43.2663C92.643 43.9774 93.7964 44.3188 95.2672 44.3188C98.2087 44.3188 99.5065 42.7543 99.5065 41.2185C99.5065 40.1375 98.9585 39.4265 97.8339 39.0284C97.0264 38.6869 95.5556 38.5164 93.7964 38.5164ZM93.9985 45.9115C92.2393 45.9115 90.9704 45.5416 89.8747 44.7169C88.8076 43.9204 88.3462 42.7258 88.3462 41.9011C88.3462 41.6736 88.4039 41.0477 88.923 40.479C89.2401 40.1375 89.9321 39.4834 91.5761 38.3742C91.6336 38.3458 91.6625 38.3173 91.6625 38.2603C91.6625 38.2034 91.6047 38.1464 91.5473 38.1182C90.1917 37.6062 89.7881 36.7813 89.6726 36.3262V36.2692C89.644 36.0987 89.5863 35.9281 89.8458 35.7572C90.0476 35.6151 90.3361 35.4445 90.6531 35.2455C91.1433 34.961 91.6625 34.6481 91.9798 34.392C92.0375 34.3351 92.0375 34.2784 92.0375 34.2215C92.0375 34.1645 91.9798 34.1076 91.922 34.0794C89.9035 33.425 88.8942 31.9459 88.8942 29.7275C88.8942 28.2769 89.5574 26.9684 90.7397 26.1437C91.5473 25.5178 93.5657 24.75 94.8924 24.75H94.979C96.3343 24.7782 97.0841 25.0627 98.151 25.4326C98.7278 25.6317 99.2758 25.7168 100.026 25.7168C101.15 25.7168 101.64 25.3757 102.044 24.9776C102.073 25.0343 102.131 25.1766 102.16 25.5463C102.188 25.9162 102.073 26.4564 101.785 26.8548C101.554 27.1675 101.035 27.3953 100.516 27.3953H100.372C99.8524 27.3383 99.6217 27.2814 99.6217 27.2814L99.5065 27.3383C99.4776 27.3953 99.5065 27.4519 99.5354 27.5374L99.5643 27.5943C99.6217 27.8503 99.7372 28.6181 99.7372 28.8174C99.7372 31.1497 98.7856 32.1734 97.7762 32.9414C96.7957 33.6525 95.6711 34.1076 94.4022 34.2215C94.3733 34.2215 94.2581 34.2215 93.9985 34.2499C93.8542 34.2499 93.6523 34.2784 93.6235 34.2784H93.5946C93.3639 34.3351 92.7873 34.6196 92.7873 35.1031C92.7873 35.5297 93.0469 36.0417 94.2867 36.1271C94.5462 36.1556 94.8058 36.1556 95.0942 36.1841C96.7379 36.2977 98.7856 36.4401 99.7372 36.7528C101.064 37.2363 101.9 38.4025 101.9 39.7964C101.9 41.9011 100.372 43.8637 97.8339 45.0866C96.5939 45.627 95.3538 45.9115 93.9985 45.9115ZM110.436 26.0868C109.83 26.0868 109.282 26.2289 108.879 26.5133C107.754 27.1959 107.177 28.5614 107.177 30.5522C107.177 34.2784 109.081 36.8952 111.791 36.8952C112.599 36.8952 113.233 36.6676 113.781 36.2126C114.617 35.5297 115.05 34.1645 115.05 32.2588C115.05 28.5614 113.176 26.0868 110.436 26.0868ZM110.955 38.2603C106.053 38.2603 104.294 34.705 104.294 31.3772C104.294 29.0449 105.245 27.2529 107.148 25.9729C108.504 25.1482 110.119 24.6931 111.561 24.6931C115.31 24.6931 117.934 27.3383 117.934 31.1497C117.934 33.7379 116.896 35.7857 114.906 37.0373C113.954 37.6629 112.311 38.2603 110.955 38.2603H110.955ZM59.5659 26.0868C58.9601 26.0868 58.4124 26.2289 58.0085 26.5133C56.8839 27.1959 56.3071 28.5614 56.3071 30.5522C56.3071 34.2784 58.2103 36.8952 60.9212 36.8952C61.7287 36.8952 62.363 36.6676 62.911 36.2126C63.7472 35.5297 64.18 34.1645 64.18 32.2588C64.18 28.5614 62.3342 26.0868 59.5659 26.0868ZM60.085 38.2603C55.1825 38.2603 53.4233 34.705 53.4233 31.3772C53.4233 29.0449 54.3749 27.2529 56.2782 25.9729C57.6337 25.1482 59.2486 24.6931 60.6905 24.6931C64.4395 24.6931 67.0637 27.3383 67.0637 31.1497C67.0637 33.7379 66.0255 35.7857 64.0356 37.0373C63.1129 37.6629 61.4691 38.2603 60.085 38.2603ZM27.1231 37.9759C27.0654 37.8907 27.0076 37.6347 27.0365 37.3217C27.0365 37.0942 27.0942 36.9518 27.1231 36.8952C27.7286 36.8097 28.0459 36.7243 28.3918 36.6392C28.9686 36.4968 29.1993 36.1841 29.2282 35.473C29.3148 33.7664 29.3148 30.5237 29.2859 28.2769V28.22C29.2859 27.964 29.2859 27.651 28.9686 27.4235C28.5073 27.1393 27.9593 26.8832 27.2383 26.6839C26.9788 26.5988 26.8058 26.4564 26.8347 26.2858C26.8347 26.1152 27.0076 25.9162 27.3827 25.8592C28.3343 25.7738 30.8142 25.1766 31.7947 24.75C31.8524 24.8067 31.939 24.9776 31.939 25.2051L31.9102 25.5178C31.8813 25.8307 31.8524 26.2007 31.8524 26.5703C31.8524 26.6839 31.9679 26.7693 32.0831 26.7693C32.1409 26.7693 32.1986 26.7409 32.2563 26.7124C34.1019 25.2903 35.7744 24.7782 36.6395 24.7782C38.0528 24.7782 39.1485 25.4326 39.9849 26.7978C40.0424 26.8832 40.1001 26.9115 40.1867 26.9115C40.2445 26.9115 40.3308 26.8832 40.3597 26.8263C42.0611 25.5463 43.7626 24.7782 44.8872 24.7782C47.5691 24.7782 49.1554 26.7409 49.1554 30.0687C49.1554 31.0073 49.1554 32.2304 49.1265 33.3398C49.1265 34.3351 49.0976 35.2455 49.0976 35.8996C49.0976 36.0417 49.2994 36.4968 49.6167 36.5822C50.0204 36.7813 50.5684 36.8667 51.2893 36.9803H51.3182C51.3759 37.1794 51.2604 37.9189 51.1452 38.0613C50.972 38.0613 50.7125 38.0613 50.4243 38.0328C49.8763 38.0043 49.0976 37.9759 48.2326 37.9759C46.4445 37.9759 45.5218 38.0043 44.6276 38.0613C44.5701 37.8338 44.5413 37.1512 44.6276 36.9803C45.1467 36.8952 45.4063 36.8097 45.7236 36.7243C46.3005 36.5537 46.4445 36.2977 46.4734 35.5582C46.4734 35.018 46.5886 30.4101 46.4157 29.3007C46.2427 28.163 45.3774 26.8263 43.4741 26.8263C42.7532 26.8263 41.6286 27.1108 40.5326 27.9355C40.4752 27.9924 40.4174 28.1345 40.4174 28.22V28.2484C40.5326 28.8456 40.5326 29.5285 40.5326 30.5807V32.4294C40.5326 33.7095 40.5038 34.9041 40.5326 35.8142C40.5326 36.4401 40.9077 36.5822 41.225 36.6961C41.3979 36.7243 41.5131 36.7528 41.6575 36.7813C41.917 36.8382 42.1766 36.8952 42.5802 36.9803C42.638 37.0942 42.638 37.4639 42.5514 37.7768C42.5225 37.9474 42.4648 38.0328 42.4362 38.0613C41.4557 38.0328 40.4463 38.0043 38.9755 38.0043C38.543 38.0043 37.7932 38.0328 37.1586 38.0328C36.6395 38.0328 36.1492 38.0613 35.8611 38.0613C35.8322 38.0043 35.7744 37.8053 35.7744 37.4923C35.7744 37.2363 35.8322 37.0373 35.8899 36.9803C36.034 36.9518 36.1492 36.9236 36.2936 36.9236C36.6395 36.8667 36.9279 36.8097 37.2163 36.7528C37.7066 36.6107 37.8795 36.3547 37.9084 35.729C37.995 34.3069 38.0814 30.2395 37.8795 29.2155C37.5336 27.5658 36.582 26.7409 35.0535 26.7409C34.1596 26.7409 33.0348 27.1675 32.112 27.8503C31.9679 27.964 31.8524 28.2484 31.8524 28.5044V30.1826C31.8524 32.2304 31.8524 34.7904 31.8813 35.8996C31.9102 36.2408 32.0254 36.6392 32.6888 36.7813C32.8329 36.8097 33.0636 36.8667 33.3521 36.8952L33.8712 36.9803C33.9289 37.1512 33.9 37.8338 33.7846 38.0613C33.4961 38.0613 33.1502 38.0328 32.7463 38.0328C32.1409 38.0043 31.3622 37.9759 30.4971 37.9759C29.4878 37.9759 28.7668 38.0043 28.19 38.0328C27.7863 37.9759 27.469 37.9759 27.1231 37.9759Z"/>
</mask>
<path fill-rule="evenodd" clip-rule="evenodd" d="M86.0104 36.8097C85.2894 36.7243 84.7703 36.6107 84.1357 36.3262C84.0494 36.2692 83.905 35.985 83.905 35.8711C83.8473 34.8756 83.8473 32.0313 83.8473 30.1256C83.8473 28.5896 83.588 27.2529 82.9245 26.3143C82.1458 25.2333 81.0213 24.6077 79.5794 24.6077C78.3104 24.6077 76.609 25.4611 75.196 26.6557C75.1671 26.6839 74.9364 26.8832 74.9653 26.5703C74.9653 26.2573 75.023 25.6317 75.0519 25.2051C75.0807 24.8067 74.8501 24.6077 74.8501 24.6077C73.927 25.0627 71.3317 25.6602 70.38 25.7453C69.688 25.8877 69.515 26.5418 70.236 26.7693H70.2648C71.0432 26.9969 71.5624 27.2529 71.966 27.5089C72.2544 27.7364 72.2256 28.0494 72.2256 28.3054C72.2544 30.4386 72.2544 33.7095 72.1681 35.5015C72.1392 36.2126 71.9374 36.4683 71.4183 36.5822L71.4758 36.5537C71.0721 36.6392 70.7548 36.7243 70.2646 36.7813C70.0916 36.9518 70.0916 37.8622 70.2646 38.0613C70.5819 38.0613 72.2544 37.9759 73.6389 37.9759C75.5421 37.9759 76.5226 38.0613 77.0129 38.0613C77.2147 37.8338 77.2724 36.9803 77.157 36.7813C76.609 36.7528 76.2053 36.6961 75.8306 36.5822C75.3114 36.4683 75.1671 36.2126 75.1382 35.6151C75.0807 34.1076 75.0807 30.9221 75.0807 28.7604C75.0807 28.163 75.2537 27.8785 75.4267 27.7079C76.0899 27.1393 77.157 26.7409 78.1086 26.7409C79.0314 26.7409 79.6371 27.0254 80.0985 27.3953C80.7328 27.907 80.9346 28.6465 81.0213 29.187C81.1653 30.4101 81.1079 32.8278 81.1079 34.9325C81.1079 36.0702 81.0213 36.3547 80.5887 36.4968C80.3869 36.5822 79.8678 36.6961 79.2621 36.7528C79.0602 36.9518 79.118 37.8338 79.2621 38.0328C80.0985 38.0328 81.079 37.9474 82.5209 37.9474C84.3087 37.9474 85.4624 38.0328 85.9238 38.0328C86.0679 37.8622 86.1256 37.0373 86.0101 36.8097H86.0104ZM93.9985 25.9446C92.47 25.9446 91.5184 27.1108 91.5184 28.931C91.5184 30.7798 92.3545 32.913 94.7195 32.913C95.1231 32.913 95.8729 32.7424 96.2188 32.3443C96.7668 31.8323 97.1419 30.8082 97.1419 29.7275C97.1419 27.3668 95.9593 25.9446 93.9985 25.9446ZM93.7964 38.5164C93.2198 38.5164 92.8159 38.6869 92.5566 38.8293C91.3452 39.5971 90.7974 40.3366 90.7974 41.2185C90.7974 42.0432 91.1145 42.6973 91.8068 43.2663C92.643 43.9774 93.7964 44.3188 95.2672 44.3188C98.2087 44.3188 99.5065 42.7543 99.5065 41.2185C99.5065 40.1375 98.9585 39.4265 97.8339 39.0284C97.0264 38.6869 95.5556 38.5164 93.7964 38.5164ZM93.9985 45.9115C92.2393 45.9115 90.9704 45.5416 89.8747 44.7169C88.8076 43.9204 88.3462 42.7258 88.3462 41.9011C88.3462 41.6736 88.4039 41.0477 88.923 40.479C89.2401 40.1375 89.9321 39.4834 91.5761 38.3742C91.6336 38.3458 91.6625 38.3173 91.6625 38.2603C91.6625 38.2034 91.6047 38.1464 91.5473 38.1182C90.1917 37.6062 89.7881 36.7813 89.6726 36.3262V36.2692C89.644 36.0987 89.5863 35.9281 89.8458 35.7572C90.0476 35.6151 90.3361 35.4445 90.6531 35.2455C91.1433 34.961 91.6625 34.6481 91.9798 34.392C92.0375 34.3351 92.0375 34.2784 92.0375 34.2215C92.0375 34.1645 91.9798 34.1076 91.922 34.0794C89.9035 33.425 88.8942 31.9459 88.8942 29.7275C88.8942 28.2769 89.5574 26.9684 90.7397 26.1437C91.5473 25.5178 93.5657 24.75 94.8924 24.75H94.979C96.3343 24.7782 97.0841 25.0627 98.151 25.4326C98.7278 25.6317 99.2758 25.7168 100.026 25.7168C101.15 25.7168 101.64 25.3757 102.044 24.9776C102.073 25.0343 102.131 25.1766 102.16 25.5463C102.188 25.9162 102.073 26.4564 101.785 26.8548C101.554 27.1675 101.035 27.3953 100.516 27.3953H100.372C99.8524 27.3383 99.6217 27.2814 99.6217 27.2814L99.5065 27.3383C99.4776 27.3953 99.5065 27.4519 99.5354 27.5374L99.5643 27.5943C99.6217 27.8503 99.7372 28.6181 99.7372 28.8174C99.7372 31.1497 98.7856 32.1734 97.7762 32.9414C96.7957 33.6525 95.6711 34.1076 94.4022 34.2215C94.3733 34.2215 94.2581 34.2215 93.9985 34.2499C93.8542 34.2499 93.6523 34.2784 93.6235 34.2784H93.5946C93.3639 34.3351 92.7873 34.6196 92.7873 35.1031C92.7873 35.5297 93.0469 36.0417 94.2867 36.1271C94.5462 36.1556 94.8058 36.1556 95.0942 36.1841C96.7379 36.2977 98.7856 36.4401 99.7372 36.7528C101.064 37.2363 101.9 38.4025 101.9 39.7964C101.9 41.9011 100.372 43.8637 97.8339 45.0866C96.5939 45.627 95.3538 45.9115 93.9985 45.9115ZM110.436 26.0868C109.83 26.0868 109.282 26.2289 108.879 26.5133C107.754 27.1959 107.177 28.5614 107.177 30.5522C107.177 34.2784 109.081 36.8952 111.791 36.8952C112.599 36.8952 113.233 36.6676 113.781 36.2126C114.617 35.5297 115.05 34.1645 115.05 32.2588C115.05 28.5614 113.176 26.0868 110.436 26.0868ZM110.955 38.2603C106.053 38.2603 104.294 34.705 104.294 31.3772C104.294 29.0449 105.245 27.2529 107.148 25.9729C108.504 25.1482 110.119 24.6931 111.561 24.6931C115.31 24.6931 117.934 27.3383 117.934 31.1497C117.934 33.7379 116.896 35.7857 114.906 37.0373C113.954 37.6629 112.311 38.2603 110.955 38.2603H110.955ZM59.5659 26.0868C58.9601 26.0868 58.4124 26.2289 58.0085 26.5133C56.8839 27.1959 56.3071 28.5614 56.3071 30.5522C56.3071 34.2784 58.2103 36.8952 60.9212 36.8952C61.7287 36.8952 62.363 36.6676 62.911 36.2126C63.7472 35.5297 64.18 34.1645 64.18 32.2588C64.18 28.5614 62.3342 26.0868 59.5659 26.0868ZM60.085 38.2603C55.1825 38.2603 53.4233 34.705 53.4233 31.3772C53.4233 29.0449 54.3749 27.2529 56.2782 25.9729C57.6337 25.1482 59.2486 24.6931 60.6905 24.6931C64.4395 24.6931 67.0637 27.3383 67.0637 31.1497C67.0637 33.7379 66.0255 35.7857 64.0356 37.0373C63.1129 37.6629 61.4691 38.2603 60.085 38.2603ZM27.1231 37.9759C27.0654 37.8907 27.0076 37.6347 27.0365 37.3217C27.0365 37.0942 27.0942 36.9518 27.1231 36.8952C27.7286 36.8097 28.0459 36.7243 28.3918 36.6392C28.9686 36.4968 29.1993 36.1841 29.2282 35.473C29.3148 33.7664 29.3148 30.5237 29.2859 28.2769V28.22C29.2859 27.964 29.2859 27.651 28.9686 27.4235C28.5073 27.1393 27.9593 26.8832 27.2383 26.6839C26.9788 26.5988 26.8058 26.4564 26.8347 26.2858C26.8347 26.1152 27.0076 25.9162 27.3827 25.8592C28.3343 25.7738 30.8142 25.1766 31.7947 24.75C31.8524 24.8067 31.939 24.9776 31.939 25.2051L31.9102 25.5178C31.8813 25.8307 31.8524 26.2007 31.8524 26.5703C31.8524 26.6839 31.9679 26.7693 32.0831 26.7693C32.1409 26.7693 32.1986 26.7409 32.2563 26.7124C34.1019 25.2903 35.7744 24.7782 36.6395 24.7782C38.0528 24.7782 39.1485 25.4326 39.9849 26.7978C40.0424 26.8832 40.1001 26.9115 40.1867 26.9115C40.2445 26.9115 40.3308 26.8832 40.3597 26.8263C42.0611 25.5463 43.7626 24.7782 44.8872 24.7782C47.5691 24.7782 49.1554 26.7409 49.1554 30.0687C49.1554 31.0073 49.1554 32.2304 49.1265 33.3398C49.1265 34.3351 49.0976 35.2455 49.0976 35.8996C49.0976 36.0417 49.2994 36.4968 49.6167 36.5822C50.0204 36.7813 50.5684 36.8667 51.2893 36.9803H51.3182C51.3759 37.1794 51.2604 37.9189 51.1452 38.0613C50.972 38.0613 50.7125 38.0613 50.4243 38.0328C49.8763 38.0043 49.0976 37.9759 48.2326 37.9759C46.4445 37.9759 45.5218 38.0043 44.6276 38.0613C44.5701 37.8338 44.5413 37.1512 44.6276 36.9803C45.1467 36.8952 45.4063 36.8097 45.7236 36.7243C46.3005 36.5537 46.4445 36.2977 46.4734 35.5582C46.4734 35.018 46.5886 30.4101 46.4157 29.3007C46.2427 28.163 45.3774 26.8263 43.4741 26.8263C42.7532 26.8263 41.6286 27.1108 40.5326 27.9355C40.4752 27.9924 40.4174 28.1345 40.4174 28.22V28.2484C40.5326 28.8456 40.5326 29.5285 40.5326 30.5807V32.4294C40.5326 33.7095 40.5038 34.9041 40.5326 35.8142C40.5326 36.4401 40.9077 36.5822 41.225 36.6961C41.3979 36.7243 41.5131 36.7528 41.6575 36.7813C41.917 36.8382 42.1766 36.8952 42.5802 36.9803C42.638 37.0942 42.638 37.4639 42.5514 37.7768C42.5225 37.9474 42.4648 38.0328 42.4362 38.0613C41.4557 38.0328 40.4463 38.0043 38.9755 38.0043C38.543 38.0043 37.7932 38.0328 37.1586 38.0328C36.6395 38.0328 36.1492 38.0613 35.8611 38.0613C35.8322 38.0043 35.7744 37.8053 35.7744 37.4923C35.7744 37.2363 35.8322 37.0373 35.8899 36.9803C36.034 36.9518 36.1492 36.9236 36.2936 36.9236C36.6395 36.8667 36.9279 36.8097 37.2163 36.7528C37.7066 36.6107 37.8795 36.3547 37.9084 35.729C37.995 34.3069 38.0814 30.2395 37.8795 29.2155C37.5336 27.5658 36.582 26.7409 35.0535 26.7409C34.1596 26.7409 33.0348 27.1675 32.112 27.8503C31.9679 27.964 31.8524 28.2484 31.8524 28.5044V30.1826C31.8524 32.2304 31.8524 34.7904 31.8813 35.8996C31.9102 36.2408 32.0254 36.6392 32.6888 36.7813C32.8329 36.8097 33.0636 36.8667 33.3521 36.8952L33.8712 36.9803C33.9289 37.1512 33.9 37.8338 33.7846 38.0613C33.4961 38.0613 33.1502 38.0328 32.7463 38.0328C32.1409 38.0043 31.3622 37.9759 30.4971 37.9759C29.4878 37.9759 28.7668 38.0043 28.19 38.0328C27.7863 37.9759 27.469 37.9759 27.1231 37.9759Z" fill="#442D22"/>
<path fill-rule="evenodd" clip-rule="evenodd" d="M86.0104 36.8097C85.2894 36.7243 84.7703 36.6107 84.1357 36.3262C84.0494 36.2692 83.905 35.985 83.905 35.8711C83.8473 34.8756 83.8473 32.0313 83.8473 30.1256C83.8473 28.5896 83.588 27.2529 82.9245 26.3143C82.1458 25.2333 81.0213 24.6077 79.5794 24.6077C78.3104 24.6077 76.609 25.4611 75.196 26.6557C75.1671 26.6839 74.9364 26.8832 74.9653 26.5703C74.9653 26.2573 75.023 25.6317 75.0519 25.2051C75.0807 24.8067 74.8501 24.6077 74.8501 24.6077C73.927 25.0627 71.3317 25.6602 70.38 25.7453C69.688 25.8877 69.515 26.5418 70.236 26.7693H70.2648C71.0432 26.9969 71.5624 27.2529 71.966 27.5089C72.2544 27.7364 72.2256 28.0494 72.2256 28.3054C72.2544 30.4386 72.2544 33.7095 72.1681 35.5015C72.1392 36.2126 71.9374 36.4683 71.4183 36.5822L71.4758 36.5537C71.0721 36.6392 70.7548 36.7243 70.2646 36.7813C70.0916 36.9518 70.0916 37.8622 70.2646 38.0613C70.5819 38.0613 72.2544 37.9759 73.6389 37.9759C75.5421 37.9759 76.5226 38.0613 77.0129 38.0613C77.2147 37.8338 77.2724 36.9803 77.157 36.7813C76.609 36.7528 76.2053 36.6961 75.8306 36.5822C75.3114 36.4683 75.1671 36.2126 75.1382 35.6151C75.0807 34.1076 75.0807 30.9221 75.0807 28.7604C75.0807 28.163 75.2537 27.8785 75.4267 27.7079C76.0899 27.1393 77.157 26.7409 78.1086 26.7409C79.0314 26.7409 79.6371 27.0254 80.0985 27.3953C80.7328 27.907 80.9346 28.6465 81.0213 29.187C81.1653 30.4101 81.1079 32.8278 81.1079 34.9325C81.1079 36.0702 81.0213 36.3547 80.5887 36.4968C80.3869 36.5822 79.8678 36.6961 79.2621 36.7528C79.0602 36.9518 79.118 37.8338 79.2621 38.0328C80.0985 38.0328 81.079 37.9474 82.5209 37.9474C84.3087 37.9474 85.4624 38.0328 85.9238 38.0328C86.0679 37.8622 86.1256 37.0373 86.0101 36.8097H86.0104ZM93.9985 25.9446C92.47 25.9446 91.5184 27.1108 91.5184 28.931C91.5184 30.7798 92.3545 32.913 94.7195 32.913C95.1231 32.913 95.8729 32.7424 96.2188 32.3443C96.7668 31.8323 97.1419 30.8082 97.1419 29.7275C97.1419 27.3668 95.9593 25.9446 93.9985 25.9446ZM93.7964 38.5164C93.2198 38.5164 92.8159 38.6869 92.5566 38.8293C91.3452 39.5971 90.7974 40.3366 90.7974 41.2185C90.7974 42.0432 91.1145 42.6973 91.8068 43.2663C92.643 43.9774 93.7964 44.3188 95.2672 44.3188C98.2087 44.3188 99.5065 42.7543 99.5065 41.2185C99.5065 40.1375 98.9585 39.4265 97.8339 39.0284C97.0264 38.6869 95.5556 38.5164 93.7964 38.5164ZM93.9985 45.9115C92.2393 45.9115 90.9704 45.5416 89.8747 44.7169C88.8076 43.9204 88.3462 42.7258 88.3462 41.9011C88.3462 41.6736 88.4039 41.0477 88.923 40.479C89.2401 40.1375 89.9321 39.4834 91.5761 38.3742C91.6336 38.3458 91.6625 38.3173 91.6625 38.2603C91.6625 38.2034 91.6047 38.1464 91.5473 38.1182C90.1917 37.6062 89.7881 36.7813 89.6726 36.3262V36.2692C89.644 36.0987 89.5863 35.9281 89.8458 35.7572C90.0476 35.6151 90.3361 35.4445 90.6531 35.2455C91.1433 34.961 91.6625 34.6481 91.9798 34.392C92.0375 34.3351 92.0375 34.2784 92.0375 34.2215C92.0375 34.1645 91.9798 34.1076 91.922 34.0794C89.9035 33.425 88.8942 31.9459 88.8942 29.7275C88.8942 28.2769 89.5574 26.9684 90.7397 26.1437C91.5473 25.5178 93.5657 24.75 94.8924 24.75H94.979C96.3343 24.7782 97.0841 25.0627 98.151 25.4326C98.7278 25.6317 99.2758 25.7168 100.026 25.7168C101.15 25.7168 101.64 25.3757 102.044 24.9776C102.073 25.0343 102.131 25.1766 102.16 25.5463C102.188 25.9162 102.073 26.4564 101.785 26.8548C101.554 27.1675 101.035 27.3953 100.516 27.3953H100.372C99.8524 27.3383 99.6217 27.2814 99.6217 27.2814L99.5065 27.3383C99.4776 27.3953 99.5065 27.4519 99.5354 27.5374L99.5643 27.5943C99.6217 27.8503 99.7372 28.6181 99.7372 28.8174C99.7372 31.1497 98.7856 32.1734 97.7762 32.9414C96.7957 33.6525 95.6711 34.1076 94.4022 34.2215C94.3733 34.2215 94.2581 34.2215 93.9985 34.2499C93.8542 34.2499 93.6523 34.2784 93.6235 34.2784H93.5946C93.3639 34.3351 92.7873 34.6196 92.7873 35.1031C92.7873 35.5297 93.0469 36.0417 94.2867 36.1271C94.5462 36.1556 94.8058 36.1556 95.0942 36.1841C96.7379 36.2977 98.7856 36.4401 99.7372 36.7528C101.064 37.2363 101.9 38.4025 101.9 39.7964C101.9 41.9011 100.372 43.8637 97.8339 45.0866C96.5939 45.627 95.3538 45.9115 93.9985 45.9115ZM110.436 26.0868C109.83 26.0868 109.282 26.2289 108.879 26.5133C107.754 27.1959 107.177 28.5614 107.177 30.5522C107.177 34.2784 109.081 36.8952 111.791 36.8952C112.599 36.8952 113.233 36.6676 113.781 36.2126C114.617 35.5297 115.05 34.1645 115.05 32.2588C115.05 28.5614 113.176 26.0868 110.436 26.0868ZM110.955 38.2603C106.053 38.2603 104.294 34.705 104.294 31.3772C104.294 29.0449 105.245 27.2529 107.148 25.9729C108.504 25.1482 110.119 24.6931 111.561 24.6931C115.31 24.6931 117.934 27.3383 117.934 31.1497C117.934 33.7379 116.896 35.7857 114.906 37.0373C113.954 37.6629 112.311 38.2603 110.955 38.2603H110.955ZM59.5659 26.0868C58.9601 26.0868 58.4124 26.2289 58.0085 26.5133C56.8839 27.1959 56.3071 28.5614 56.3071 30.5522C56.3071 34.2784 58.2103 36.8952 60.9212 36.8952C61.7287 36.8952 62.363 36.6676 62.911 36.2126C63.7472 35.5297 64.18 34.1645 64.18 32.2588C64.18 28.5614 62.3342 26.0868 59.5659 26.0868ZM60.085 38.2603C55.1825 38.2603 53.4233 34.705 53.4233 31.3772C53.4233 29.0449 54.3749 27.2529 56.2782 25.9729C57.6337 25.1482 59.2486 24.6931 60.6905 24.6931C64.4395 24.6931 67.0637 27.3383 67.0637 31.1497C67.0637 33.7379 66.0255 35.7857 64.0356 37.0373C63.1129 37.6629 61.4691 38.2603 60.085 38.2603ZM27.1231 37.9759C27.0654 37.8907 27.0076 37.6347 27.0365 37.3217C27.0365 37.0942 27.0942 36.9518 27.1231 36.8952C27.7286 36.8097 28.0459 36.7243 28.3918 36.6392C28.9686 36.4968 29.1993 36.1841 29.2282 35.473C29.3148 33.7664 29.3148 30.5237 29.2859 28.2769V28.22C29.2859 27.964 29.2859 27.651 28.9686 27.4235C28.5073 27.1393 27.9593 26.8832 27.2383 26.6839C26.9788 26.5988 26.8058 26.4564 26.8347 26.2858C26.8347 26.1152 27.0076 25.9162 27.3827 25.8592C28.3343 25.7738 30.8142 25.1766 31.7947 24.75C31.8524 24.8067 31.939 24.9776 31.939 25.2051L31.9102 25.5178C31.8813 25.8307 31.8524 26.2007 31.8524 26.5703C31.8524 26.6839 31.9679 26.7693 32.0831 26.7693C32.1409 26.7693 32.1986 26.7409 32.2563 26.7124C34.1019 25.2903 35.7744 24.7782 36.6395 24.7782C38.0528 24.7782 39.1485 25.4326 39.9849 26.7978C40.0424 26.8832 40.1001 26.9115 40.1867 26.9115C40.2445 26.9115 40.3308 26.8832 40.3597 26.8263C42.0611 25.5463 43.7626 24.7782 44.8872 24.7782C47.5691 24.7782 49.1554 26.7409 49.1554 30.0687C49.1554 31.0073 49.1554 32.2304 49.1265 33.3398C49.1265 34.3351 49.0976 35.2455 49.0976 35.8996C49.0976 36.0417 49.2994 36.4968 49.6167 36.5822C50.0204 36.7813 50.5684 36.8667 51.2893 36.9803H51.3182C51.3759 37.1794 51.2604 37.9189 51.1452 38.0613C50.972 38.0613 50.7125 38.0613 50.4243 38.0328C49.8763 38.0043 49.0976 37.9759 48.2326 37.9759C46.4445 37.9759 45.5218 38.0043 44.6276 38.0613C44.5701 37.8338 44.5413 37.1512 44.6276 36.9803C45.1467 36.8952 45.4063 36.8097 45.7236 36.7243C46.3005 36.5537 46.4445 36.2977 46.4734 35.5582C46.4734 35.018 46.5886 30.4101 46.4157 29.3007C46.2427 28.163 45.3774 26.8263 43.4741 26.8263C42.7532 26.8263 41.6286 27.1108 40.5326 27.9355C40.4752 27.9924 40.4174 28.1345 40.4174 28.22V28.2484C40.5326 28.8456 40.5326 29.5285 40.5326 30.5807V32.4294C40.5326 33.7095 40.5038 34.9041 40.5326 35.8142C40.5326 36.4401 40.9077 36.5822 41.225 36.6961C41.3979 36.7243 41.5131 36.7528 41.6575 36.7813C41.917 36.8382 42.1766 36.8952 42.5802 36.9803C42.638 37.0942 42.638 37.4639 42.5514 37.7768C42.5225 37.9474 42.4648 38.0328 42.4362 38.0613C41.4557 38.0328 40.4463 38.0043 38.9755 38.0043C38.543 38.0043 37.7932 38.0328 37.1586 38.0328C36.6395 38.0328 36.1492 38.0613 35.8611 38.0613C35.8322 38.0043 35.7744 37.8053 35.7744 37.4923C35.7744 37.2363 35.8322 37.0373 35.8899 36.9803C36.034 36.9518 36.1492 36.9236 36.2936 36.9236C36.6395 36.8667 36.9279 36.8097 37.2163 36.7528C37.7066 36.6107 37.8795 36.3547 37.9084 35.729C37.995 34.3069 38.0814 30.2395 37.8795 29.2155C37.5336 27.5658 36.582 26.7409 35.0535 26.7409C34.1596 26.7409 33.0348 27.1675 32.112 27.8503C31.9679 27.964 31.8524 28.2484 31.8524 28.5044V30.1826C31.8524 32.2304 31.8524 34.7904 31.8813 35.8996C31.9102 36.2408 32.0254 36.6392 32.6888 36.7813C32.8329 36.8097 33.0636 36.8667 33.3521 36.8952L33.8712 36.9803C33.9289 37.1512 33.9 37.8338 33.7846 38.0613C33.4961 38.0613 33.1502 38.0328 32.7463 38.0328C32.1409 38.0043 31.3622 37.9759 30.4971 37.9759C29.4878 37.9759 28.7668 38.0043 28.19 38.0328C27.7863 37.9759 27.469 37.9759 27.1231 37.9759Z" stroke="white" stroke-width="2" stroke-linejoin="bevel" mask="url(#path-2-outside-1)"/>
<path d="M10.2717 44.3919L10.2717 44.3919L10.2717 44.3919ZM10.2717 44.3919L10.2717 44.3915L10.2718 44.389L10.272 44.3777L10.2727 44.3311C10.2732 44.2896 10.2737 44.2278 10.2735 44.1486C10.2733 43.99 10.2705 43.7619 10.2606 43.4864C10.2408 42.9339 10.1924 42.198 10.0791 41.4536C9.96483 40.7028 9.78909 39.9747 9.52854 39.4213C9.26165 38.8544 8.96191 38.5837 8.65633 38.5234L8.37662 38.3619C8.2928 38.266 8.24566 38.1545 8.21809 38.0789C8.18685 37.9933 8.16107 37.8972 8.13893 37.7975C8.09452 37.5974 8.05627 37.3435 8.02257 37.0491C7.95491 36.4579 7.90088 35.66 7.85963 34.7106C7.77701 32.8095 7.74435 30.2688 7.76195 27.4907C7.79713 21.9373 8.0334 15.4035 8.47921 11.0957C8.59074 10.018 8.71614 9.07193 8.85634 8.31161C8.99333 7.56862 9.15334 6.94937 9.35431 6.56314C9.44466 6.38948 9.6058 6.13587 9.88763 6.03756C10.2549 5.90945 10.5465 6.11491 10.702 6.2918C10.8551 6.46581 10.9785 6.71117 11.0862 6.98598C11.1978 7.27062 11.3083 7.62927 11.4192 8.06243C12.2967 11.491 13.3765 20.3467 14.6731 37.7682L14.3958 38.2535C14.3958 38.2536 14.3958 38.2536 14.3959 38.2536L14.3956 38.2538L14.3948 38.2542L14.3844 38.2595C14.3743 38.2647 14.3582 38.2732 14.3368 38.2849C14.294 38.3083 14.2304 38.3443 14.1522 38.3924C13.9952 38.4891 13.7828 38.6323 13.5626 38.8174C13.1104 39.1973 12.6835 39.7042 12.5587 40.2975L12.5563 40.3085L12.5562 40.3085C12.3989 40.9808 12.3673 42.0756 12.3818 43.0457C12.3888 43.5216 12.4066 43.9527 12.4226 44.2648C12.4306 44.4207 12.4381 44.5466 12.4436 44.6333C12.4464 44.6766 12.4487 44.71 12.4502 44.7325L12.452 44.7577L12.4524 44.7639L12.4525 44.7653L12.4525 44.7656L12.4525 44.7656L12.4525 44.7656L11.7942 45.2762L10.6119 44.8778L10.2718 44.392L10.2717 44.3919Z" fill="white" stroke="white" stroke-linejoin="bevel"/>
<path d="M10.2717 44.3919L10.2717 44.3919L10.2717 44.3919ZM10.2717 44.3919L10.2717 44.3915L10.2718 44.389L10.272 44.3777L10.2727 44.3311C10.2732 44.2896 10.2737 44.2278 10.2735 44.1486C10.2733 43.99 10.2705 43.7619 10.2606 43.4864C10.2408 42.9339 10.1924 42.198 10.0791 41.4536C9.96483 40.7028 9.78909 39.9747 9.52854 39.4213C9.26165 38.8544 8.96191 38.5837 8.65633 38.5234L8.37662 38.3619C8.2928 38.266 8.24566 38.1545 8.21809 38.0789C8.18685 37.9933 8.16107 37.8972 8.13893 37.7975C8.09452 37.5974 8.05627 37.3435 8.02257 37.0491C7.95491 36.4579 7.90088 35.66 7.85963 34.7106C7.77701 32.8095 7.74435 30.2688 7.76195 27.4907C7.79713 21.9373 8.0334 15.4035 8.47921 11.0957C8.59074 10.018 8.71614 9.07193 8.85634 8.31161C8.99333 7.56862 9.15334 6.94937 9.35431 6.56314C9.44466 6.38948 9.6058 6.13587 9.88763 6.03756C10.2549 5.90945 10.5465 6.11491 10.702 6.2918C10.8551 6.46581 10.9785 6.71117 11.0862 6.98598C11.1978 7.27062 11.3083 7.62927 11.4192 8.06243C12.2967 11.491 13.3765 20.3467 14.6731 37.7682L14.3958 38.2535C14.3958 38.2536 14.3958 38.2536 14.3959 38.2536L14.3956 38.2538L14.3948 38.2542L14.3844 38.2595C14.3743 38.2647 14.3582 38.2732 14.3368 38.2849C14.294 38.3083 14.2304 38.3443 14.1522 38.3924C13.9952 38.4891 13.7828 38.6323 13.5626 38.8174C13.1104 39.1973 12.6835 39.7042 12.5587 40.2975L12.5563 40.3085L12.5562 40.3085C12.3989 40.9808 12.3673 42.0756 12.3818 43.0457C12.3888 43.5216 12.4066 43.9527 12.4226 44.2648C12.4306 44.4207 12.4381 44.5466 12.4436 44.6333C12.4464 44.6766 12.4487 44.71 12.4502 44.7325L12.452 44.7577L12.4524 44.7639L12.4525 44.7653L12.4525 44.7656L12.4525 44.7656L12.4525 44.7656L11.7942 45.2762L10.6119 44.8778L10.2718 44.392L10.2717 44.3919Z" fill="#A6A385" stroke="white" stroke-linejoin="bevel"/>
<path d="M12.8609 39.4762L12.5889 39.0567C12.8609 39.4762 12.8612 39.476 12.8615 39.4758L12.8623 39.4753L12.8645 39.4738L12.8719 39.469L12.8976 39.4519C12.9195 39.4371 12.9509 39.4157 12.991 39.3877C13.0712 39.3317 13.1864 39.249 13.3309 39.1395C13.6199 38.9207 14.0264 38.5944 14.5049 38.1597C15.4614 37.2906 16.7086 35.9847 17.8784 34.2323C20.2226 30.7202 22.2486 25.4226 21.0119 18.293L21.0066 18.2664C19.821 13.1124 17.8259 9.67697 16.0415 7.36436C15.151 6.21017 14.3163 5.34024 13.674 4.68518C13.6113 4.62127 13.5509 4.55983 13.4927 4.50067C13.2496 4.25343 13.0457 4.04608 12.8801 3.86474C12.6672 3.63169 12.5621 3.48818 12.5218 3.40282L12.4739 3.32215C12.1713 2.90686 11.8631 2.31647 11.6244 1.81054C11.5068 1.56137 11.4093 1.33965 11.3413 1.18044C11.3073 1.10092 11.2808 1.03722 11.2629 0.993757L11.2428 0.944341L11.2378 0.932088L11.2367 0.92926L11.2365 0.928699L11.2365 0.928692L11.2364 0.928643L11.2361 0.928764L10.272 1.12143L10.7044 29.3385L10.6974 29.4136C10.6913 29.4797 10.6826 29.5758 10.6725 29.6978C10.6522 29.9416 10.6259 30.2889 10.6015 30.7079C10.5528 31.5448 10.5115 32.6727 10.5426 33.8364C10.5736 34.9949 10.6768 36.2134 10.9261 37.2212C11.0508 37.7252 11.2168 38.197 11.4419 38.5883C11.6665 38.9785 11.9689 39.321 12.3792 39.5106L12.8609 39.4762ZM10.7064 29.3174C10.7067 29.3131 10.7069 29.3103 10.707 29.31C10.707 29.3098 10.7069 29.3119 10.7064 29.3174Z" fill="white" stroke="white" stroke-linejoin="bevel"/>
<path d="M12.8609 39.4762L12.5889 39.0567C12.8609 39.4762 12.8612 39.476 12.8615 39.4758L12.8623 39.4753L12.8645 39.4738L12.8719 39.469L12.8976 39.4519C12.9195 39.4371 12.9509 39.4157 12.991 39.3877C13.0712 39.3317 13.1864 39.249 13.3309 39.1395C13.6199 38.9207 14.0264 38.5944 14.5049 38.1597C15.4614 37.2906 16.7086 35.9847 17.8784 34.2323C20.2226 30.7202 22.2486 25.4226 21.0119 18.293L21.0066 18.2664C19.821 13.1124 17.8259 9.67697 16.0415 7.36436C15.151 6.21017 14.3163 5.34024 13.674 4.68518C13.6113 4.62127 13.5509 4.55983 13.4927 4.50067C13.2496 4.25343 13.0457 4.04608 12.8801 3.86474C12.6672 3.63169 12.5621 3.48818 12.5218 3.40282L12.4739 3.32215C12.1713 2.90686 11.8631 2.31647 11.6244 1.81054C11.5068 1.56137 11.4093 1.33965 11.3413 1.18044C11.3073 1.10092 11.2808 1.03722 11.2629 0.993757L11.2428 0.944341L11.2378 0.932088L11.2367 0.92926L11.2365 0.928699L11.2365 0.928692L11.2364 0.928643L11.2361 0.928764L10.272 1.12143L10.7044 29.3385L10.6974 29.4136C10.6913 29.4797 10.6826 29.5758 10.6725 29.6978C10.6522 29.9416 10.6259 30.2889 10.6015 30.7079C10.5528 31.5448 10.5115 32.6727 10.5426 33.8364C10.5736 34.9949 10.6768 36.2134 10.9261 37.2212C11.0508 37.7252 11.2168 38.197 11.4419 38.5883C11.6665 38.9785 11.9689 39.321 12.3792 39.5106L12.8609 39.4762ZM10.7064 29.3174C10.7067 29.3131 10.7069 29.3103 10.707 29.31C10.707 29.3098 10.7069 29.3119 10.7064 29.3174Z" fill="#499D4A" stroke="white" stroke-linejoin="bevel"/>
<path d="M10.1663 39.4264L9.88707 39.8412L10.6253 39.6247C10.8202 39.1733 10.9966 38.3535 11.1528 37.3081C11.3119 36.2432 11.4573 34.8909 11.5732 33.3378C11.8052 30.2311 11.921 26.3024 11.7906 22.2309L11.7905 22.2264C11.7682 21.6829 11.7595 20.075 11.7481 17.9655C11.7377 16.0249 11.725 13.6598 11.6972 11.3083C11.6684 8.86292 11.6232 6.43862 11.5473 4.54383C11.5093 3.59715 11.4634 2.77673 11.4074 2.14963C11.3794 1.83658 11.3483 1.56507 11.3132 1.34703C11.281 1.14688 11.2378 0.937522 11.1663 0.786207L10.2153 0.968343C10.1854 1.43886 10.1647 1.67097 10.0756 1.89843C9.99043 2.11585 9.82551 2.36635 9.42585 2.78988C7.97633 3.91499 1.07921 9.69619 0.525295 21.3409C0.229361 27.254 2.57775 31.8829 4.98235 35.0197C6.18499 36.5886 7.4056 37.7898 8.3266 38.5997C8.78739 39.0049 9.174 39.3129 9.44702 39.5207C9.58355 39.6246 9.69176 39.7035 9.76672 39.7571C9.8042 39.7838 9.83338 39.8043 9.85364 39.8183L9.87728 39.8346L9.88393 39.8391L9.88595 39.8405L9.88662 39.8409C9.88687 39.8411 9.88707 39.8412 10.1663 39.4264Z" fill="white" stroke="white" stroke-linejoin="bevel"/>
<path d="M10.1663 39.4264L9.88707 39.8412L10.6253 39.6247C10.8202 39.1733 10.9966 38.3535 11.1528 37.3081C11.3119 36.2432 11.4573 34.8909 11.5732 33.3378C11.8052 30.2311 11.921 26.3024 11.7906 22.2309L11.7905 22.2264C11.7682 21.6829 11.7595 20.075 11.7481 17.9655C11.7377 16.0249 11.725 13.6598 11.6972 11.3083C11.6684 8.86292 11.6232 6.43862 11.5473 4.54383C11.5093 3.59715 11.4634 2.77673 11.4074 2.14963C11.3794 1.83658 11.3483 1.56507 11.3132 1.34703C11.281 1.14688 11.2378 0.937522 11.1663 0.786207L10.2153 0.968343C10.1854 1.43886 10.1647 1.67097 10.0756 1.89843C9.99043 2.11585 9.82551 2.36635 9.42585 2.78988C7.97633 3.91499 1.07921 9.69619 0.525295 21.3409C0.229361 27.254 2.57775 31.8829 4.98235 35.0197C6.18499 36.5886 7.4056 37.7898 8.3266 38.5997C8.78739 39.0049 9.174 39.3129 9.44702 39.5207C9.58355 39.6246 9.69176 39.7035 9.76672 39.7571C9.8042 39.7838 9.83338 39.8043 9.85364 39.8183L9.87728 39.8346L9.88393 39.8391L9.88595 39.8405L9.88662 39.8409C9.88687 39.8411 9.88707 39.8412 10.1663 39.4264Z" fill="#58AA50" stroke="white" stroke-linejoin="bevel"/>
</svg>
