<svg width="106" height="67" viewBox="0 0 106 67" fill="none" xmlns="http://www.w3.org/2000/svg">
<path d="M51.1394 65.9877L51.121 65.9771L48.0055 64.0911C47.8733 64.0165 47.7469 63.9304 47.6524 63.8249C47.5552 63.7163 47.4258 63.5058 47.5003 63.2402C47.5638 63.0136 47.7387 62.9032 47.8038 62.8657C47.8843 62.8195 47.9664 62.7915 48.0028 62.7791C48.3225 62.6705 48.4874 62.6121 48.6522 62.5372C48.8156 62.4629 48.9877 62.3682 49.3099 62.1807C49.6192 61.9843 49.935 62.1182 50.0742 62.2078L52.3443 63.5914L61.4912 58.1946V47.3765L52.3424 42.002L43.1937 47.3765V58.1945L45.635 59.6325C46.2093 59.9267 46.5839 59.8605 46.7906 59.7417C47.0149 59.6128 47.1472 59.366 47.1472 59.1135V48.2277C47.1472 47.8445 47.4533 47.4406 47.9289 47.4406H49.1262C49.525 47.4406 49.9079 47.7663 49.9079 48.2277V54.2935C50.0366 54.0699 50.2736 53.9003 50.5817 53.9003H51.8025C52.1522 53.9003 52.5346 54.1503 52.5594 54.5936C52.6463 55.158 52.7941 55.4506 53.084 55.6445C53.4217 55.8703 54.0475 56.0296 55.277 56.0296C56.2463 56.0296 56.8441 55.914 57.1867 55.7282C57.3465 55.6416 57.4394 55.5457 57.4963 55.4452C57.5545 55.3426 57.5941 55.2019 57.5941 54.9985C57.5941 54.8684 57.5798 54.8207 57.5656 54.7933C57.5554 54.7736 57.5192 54.7135 57.3618 54.6317C57.0134 54.4507 56.2753 54.2642 54.7337 54.1083L54.7328 54.1082C53.4496 53.9762 52.3103 53.7605 51.4872 53.2606C51.0641 53.0037 50.7165 52.6674 50.4783 52.227C50.2411 51.7885 50.1287 51.2768 50.1287 50.692C50.1287 49.5671 50.6011 48.6427 51.4688 48.0166C52.3167 47.4049 53.5008 47.1057 54.9013 47.1057C56.4484 47.1057 57.6927 47.3741 58.5847 48.0125C59.5011 48.6684 59.9687 49.6579 60.0715 50.9144L60.0731 50.9552C60.0731 51.1417 60.0108 51.3071 59.9211 51.4442L59.8596 51.5207C59.7814 51.6003 59.5885 51.7662 59.3149 51.7662H58.0941C57.7369 51.7662 57.4175 51.5014 57.3463 51.1525C57.2224 50.576 57.0249 50.2896 56.7294 50.1139C56.3945 49.9149 55.8486 49.8043 54.9013 49.8043C53.8603 49.8043 53.3938 49.9927 53.1915 50.1519C53.0245 50.2833 52.9833 50.4385 52.9833 50.6441C52.9833 50.7904 53.0021 50.8224 53.0054 50.828C53.0055 50.8281 53.0301 50.8759 53.1965 50.9471C53.5606 51.1029 54.2896 51.2464 55.7647 51.4403L55.7652 51.4404C57.2023 51.6309 58.3686 51.8723 59.1738 52.3805C59.5913 52.644 59.9196 52.983 60.1384 53.4223C60.3548 53.8568 60.4487 54.3585 60.4487 54.9267V54.9323H60.4487C60.4353 56.1364 59.9352 57.1158 58.9983 57.7758C58.0843 58.4196 56.8006 58.7283 55.2535 58.7283C53.131 58.7283 51.7466 58.2346 50.8935 57.4321C50.3417 56.9131 50.0477 56.2985 49.9079 55.6878V59.1135C49.9079 60.1437 49.6322 61.0271 49.0503 61.6569C48.4632 62.2924 47.6251 62.6042 46.6377 62.6042H46.628C46.3583 62.6042 46.0701 62.6042 45.6915 62.5165C45.3156 62.4294 44.8715 62.2616 44.2544 61.9533L44.2263 61.9381L41.7612 60.5026L41.7594 60.5016C40.992 60.0503 40.5269 59.214 40.5269 58.324V47.2946C40.5269 46.4048 40.9919 45.5686 41.7591 45.1173C41.7592 45.1172 41.7593 45.1172 41.7594 45.1171L51.1258 39.5908L51.132 39.5872L51.1321 39.5872C51.8726 39.1646 52.8592 39.1646 53.5997 39.5872L53.606 39.5908L53.606 39.5908L62.9724 45.1171C62.9725 45.1172 62.9726 45.1173 62.9728 45.1173C63.74 45.5686 64.205 46.4048 64.205 47.2946V58.324C64.205 59.2137 63.7401 60.0499 62.973 60.5012L51.1394 65.9877ZM51.1394 65.9877C51.5086 66.1903 51.9193 66.3125 52.3659 66.3125C52.7622 66.3125 53.1878 66.2269 53.5647 66.0496L53.606 66.0278L62.9724 60.5016L51.1394 65.9877ZM43.0615 58.1178C43.0674 58.1207 43.0729 58.1238 43.0783 58.127L43.0615 58.1178ZM43.0615 47.453L43.078 47.444C43.0727 47.4471 43.0673 47.4501 43.0615 47.453ZM52.4826 41.9184C52.4762 41.9227 52.4699 41.9267 52.4637 41.9303L52.4826 41.9184ZM61.6233 47.453C61.619 47.4508 61.6147 47.4485 61.6105 47.446L61.6233 47.453ZM61.6233 58.1178L61.6101 58.125C61.6144 58.1225 61.6188 58.1201 61.6233 58.1178ZM52.2023 63.6763C52.2085 63.6721 52.2146 63.6683 52.2206 63.6648L52.2023 63.6763Z" fill="#539E43" stroke="white" stroke-linejoin="bevel"/>
<path d="M12.9898 15.3536L12.9911 15.3543L22.9408 21.1895C22.9415 21.19 22.9423 21.1904 22.9431 21.1909C23.4727 21.4956 23.8022 22.0668 23.8025 22.6753L12.9898 15.3536ZM12.9898 15.3536C12.7466 15.212 12.4865 15.1509 12.2614 15.1222L12.1982 15.1182H12.1043C11.7946 15.1182 11.5181 15.234 11.3127 15.3536L11.3114 15.3543L1.3594 21.1909C0.82953 21.4957 0.5 22.0672 0.499999 22.676L0.500001 22.6768L0.523476 38.3707H1.02348L0.523477 38.3715L0.523476 38.3712C0.523625 38.7416 0.717194 39.1352 1.08016 39.3313C1.40965 39.531 1.84522 39.5505 2.18529 39.3186L8.08027 35.8857C8.08085 35.8853 8.08143 35.885 8.08202 35.8847C8.61222 35.5799 8.94199 35.0082 8.94199 34.3992V27.0543C8.94199 26.8026 9.08102 26.5615 9.30103 26.4354L9.30105 26.4354L9.30661 26.4321L11.8186 24.9488L11.8329 24.9399C11.9253 24.8811 12.0388 24.8507 12.1747 24.8507C12.3189 24.8507 12.4152 24.8845 12.4674 24.9225L12.5074 24.9488L15.0194 26.4321L15.0193 26.4321L15.0249 26.4354C15.2449 26.5615 15.384 26.8026 15.384 27.0543V34.3992C15.384 35.0082 15.7138 35.5799 16.244 35.8847C16.2446 35.885 16.2451 35.8854 16.2457 35.8857L22.1515 39.3249C22.4949 39.5386 22.9242 39.5407 23.2694 39.3312C23.6324 39.135 23.826 38.7412 23.826 38.3707V38.37L23.8025 22.676L12.9898 15.3536Z" fill="#333333" stroke="white" stroke-linejoin="bevel"/>
<path d="M71.3941 0.637005L71.3742 0.626277C71.0544 0.463318 70.6378 0.448023 70.3086 0.6397L70.2916 0.650055C69.9797 0.848772 69.7551 1.18954 69.7551 1.59812V17.031L67.3857 15.6414L67.3857 15.6414L67.3814 15.6389C66.8517 15.3353 66.2164 15.3353 65.6868 15.6389L65.6867 15.6389L65.6817 15.6418L55.73 21.5021C55.2004 21.807 54.8711 22.3784 54.8711 22.987V34.6862C54.8711 35.2948 55.2004 35.8662 55.7301 36.1711C55.731 36.1717 55.7319 36.1722 55.7328 36.1727L65.6817 42.0314L65.6817 42.0314L65.6868 42.0343C66.2164 42.3379 66.8517 42.3379 67.3814 42.0343L67.3814 42.0343L67.3864 42.0314L77.3353 36.1727C77.3362 36.1722 77.3372 36.1717 77.3381 36.1711C77.8677 35.8662 78.197 35.2948 78.197 34.6862V5.5218C78.197 4.89367 77.8712 4.3186 77.3353 4.0114L77.3336 4.01041L71.3941 0.637005ZM69.8637 30.652L69.8504 30.6593C69.8548 30.6568 69.8592 30.6543 69.8637 30.652ZM69.7316 26.9204V30.7289L66.5341 32.6167L63.3366 30.7289V26.9204L66.5341 25.0326L69.7316 26.9204ZM63.2044 30.652C63.2104 30.655 63.216 30.6582 63.2214 30.6614L63.2044 30.652ZM63.2044 26.9973L63.2177 26.99C63.2134 26.9925 63.2089 26.995 63.2044 26.9973ZM69.8467 26.9879L69.8637 26.9973C69.8578 26.9943 69.8521 26.9911 69.8467 26.9879Z" fill="#333333" stroke="white" stroke-linejoin="bevel"/>
<path d="M104.533 21.3402L104.533 21.3401L104.526 21.3362L94.6429 15.4986L94.6429 15.4985L94.6372 15.4953C94.1076 15.1917 93.4723 15.1917 92.9426 15.4953L92.9426 15.4953L92.9376 15.4982L82.9859 21.3585C82.4563 21.6634 82.127 22.2348 82.127 22.8434V34.5426C82.127 35.1517 82.4568 35.7235 82.9872 36.0283C82.9877 36.0286 82.9882 36.0288 82.9887 36.0291L92.8697 41.7697L92.8722 41.7711C93.394 42.0702 94.0321 42.08 94.5479 41.7685L100.52 38.3794C100.889 38.1851 101.086 37.7875 101.086 37.4136C101.086 37.041 100.891 36.6448 100.523 36.4497L90.5431 30.6002C90.5146 30.5809 90.4975 30.5607 90.4881 30.5447C90.4786 30.5287 90.475 30.5141 90.475 30.4993V26.8388C90.475 26.8201 90.4807 26.7975 90.4916 26.7783C90.5006 26.7626 90.508 26.7576 90.5081 26.7575L90.5318 26.7445L93.6542 24.9263L93.6712 24.9159C93.6847 24.9073 93.6971 24.9045 93.7078 24.9045C93.7184 24.9045 93.7308 24.9073 93.7443 24.9159L93.7613 24.9263L96.8728 26.7382C96.9011 26.7574 96.9181 26.7775 96.9275 26.7934C96.9369 26.8095 96.9405 26.824 96.9405 26.8388V29.7098C96.9405 30.0803 97.134 30.4741 97.4971 30.6703C97.8429 30.8803 98.2733 30.8777 98.6172 30.6626L104.524 27.1508C105.069 26.8366 105.359 26.2556 105.359 25.6665V22.8194C105.359 22.2133 105.032 21.6456 104.533 21.3402Z" fill="#333333" stroke="white" stroke-linejoin="bevel"/>
<path d="M96.0545 26.8798L96.028 26.863L94.1359 25.7442C93.9038 25.596 93.6053 25.596 93.3731 25.7442L91.481 26.863L91.4546 26.8798C91.2683 27.0064 91.1182 27.2234 91.1182 27.5087V29.7577C91.1182 30.043 91.2683 30.26 91.4546 30.3866L91.481 30.4034L93.3731 31.5222C93.6052 31.6704 93.9038 31.6704 94.1359 31.5222L96.028 30.4034L96.0545 30.3866C96.2407 30.26 96.3909 30.043 96.3909 29.7577V27.5087C96.3909 27.2234 96.2407 27.0064 96.0545 26.8798Z" fill="#539E43" stroke="white" stroke-linejoin="bevel"/>
<mask id="mask0" mask-type="alpha" maskUnits="userSpaceOnUse" x="27" y="14" width="25" height="29">
<path d="M40.2005 15.546L40.2005 15.5459L40.1957 15.5431C39.666 15.2395 39.0307 15.2395 38.5011 15.5431L38.501 15.5431L38.4962 15.546L28.6149 21.3584C28.0694 21.6725 27.7793 22.2539 27.7793 22.8434V34.4948C27.7793 35.1009 28.1058 35.6686 28.6054 35.9741L28.6053 35.9741L28.6127 35.9785L38.4962 41.7922L38.4962 41.7922L38.5011 41.795C39.0307 42.0986 39.666 42.0986 40.1957 41.795L40.1957 41.795L40.2005 41.7922L50.0819 35.9797C50.6274 35.6657 50.9174 35.0842 50.9174 34.4948V22.8434C50.9174 22.2372 50.5909 21.6696 50.0914 21.3641L50.0914 21.364L50.084 21.3597L40.2005 15.546Z" fill="white" stroke="white" stroke-linejoin="bevel"/>
</mask>
<g mask="url(#mask0)">
<path d="M40.2005 15.546L40.2005 15.5459L40.1957 15.5431C39.666 15.2395 39.0307 15.2395 38.5011 15.5431L38.501 15.5431L38.4962 15.546L28.6149 21.3584C28.0694 21.6725 27.7793 22.2539 27.7793 22.8434V34.4948C27.7793 35.1009 28.1058 35.6686 28.6054 35.9741L28.6053 35.9741L28.6127 35.9785L38.4962 41.7922L38.4962 41.7922L38.5011 41.795C39.0307 42.0986 39.666 42.0986 40.1957 41.795L40.1957 41.795L40.2005 41.7922L50.0819 35.9797C50.6274 35.6657 50.9174 35.0842 50.9174 34.4948V22.8434C50.9174 22.2372 50.5909 21.6696 50.0914 21.3641L50.0914 21.364L50.084 21.3597L40.2005 15.546Z" fill="url(#paint0_linear)" stroke="white" stroke-linejoin="bevel"/>
<path d="M28.1139 35.5892L28.9246 35.5091L40.0524 16.0821L39.7022 15.3406C39.3395 15.279 38.8828 15.3029 38.4722 15.5465C38.4718 15.5468 38.4713 15.547 38.4709 15.5473L28.5684 21.3584C28.0546 21.654 27.6855 22.2169 27.6855 22.8435V34.495C27.6855 34.9241 27.8619 35.3002 28.1139 35.5892Z" stroke="white" stroke-linejoin="bevel"/>
<path d="M39.2484 41.2446L39.8124 41.9655C39.9618 41.9274 40.0996 41.857 40.1837 41.814C40.1886 41.8115 40.1932 41.8091 40.1977 41.8068L40.2237 41.7926L50.1263 35.9814C50.1272 35.9809 50.128 35.9804 50.1288 35.98C50.6586 35.6751 50.9881 35.1036 50.9881 34.4949V22.8435C50.9881 22.3891 50.7868 21.9555 50.4928 21.6559L49.6953 21.7697L39.2484 41.2446Z" stroke="white" stroke-linejoin="bevel"/>
<path d="M50.1578 21.3928L50.1068 21.3586L40.1763 15.5448L40.1507 15.5308C40.0347 15.4717 39.8819 15.4078 39.7419 15.3722L39.1846 15.6082L28.0569 35.0352L28.0974 35.5924C28.2352 35.7679 28.4012 35.9011 28.5586 35.9974L28.5585 35.9974L28.5668 36.0023L38.4944 41.8143C38.4949 41.8146 38.4954 41.815 38.4959 41.8153C38.8883 42.048 39.3629 42.1231 39.815 41.9813L40.106 41.7405L50.553 22.2657L50.5151 21.7329C50.4014 21.5784 50.2573 21.4687 50.1711 21.4029C50.1665 21.3994 50.162 21.3961 50.1578 21.3928Z" fill="url(#paint1_linear)" stroke="white" stroke-linejoin="bevel"/>
<path d="M40.1799 15.5478C40.0165 15.4485 39.8409 15.3761 39.6316 15.3406L39.1143 16.0825L49.9838 35.0071L50.8358 35.0318C50.9481 34.8601 50.9878 34.6631 50.9878 34.4949V22.8435C50.9878 22.2168 50.6187 21.6538 50.1048 21.3583L40.1799 15.5478Z" stroke="white" stroke-linejoin="bevel"/>
<path d="M28.6586 21.3173L28.5707 21.357C28.0557 21.6522 27.6855 22.2159 27.6855 22.8435V34.4949C27.6855 35.1357 28.0914 35.6885 28.5586 35.9742L28.5585 35.9742L28.5668 35.9791L38.4934 41.7906C38.8344 41.9976 39.2142 42.0648 39.6083 41.9978L39.9648 41.2677L29.33 21.5297L28.729 21.2934L28.6586 21.3173Z" stroke="white" stroke-linejoin="bevel"/>
<path d="M38.8396 13.5739L38.4681 13.4751V13.4194H38.2803V13.4251L38.1941 13.4022L38.0533 13.4739L38.1808 14.0049L38.0027 14.1214L38.0497 14.1932L38.202 14.0935L38.2803 14.4194H38.4681L38.5026 14.3557L38.5073 14.3649L38.6481 14.2932L38.5939 14.1867L38.8865 13.6457L38.8396 13.5739Z" fill="url(#paint2_linear)" stroke="white" stroke-linejoin="bevel"/>
<path d="M50.1309 35.9787L50.133 35.9774C50.5312 35.7407 50.8162 35.3467 50.9431 34.9266L50.8979 34.5329L40.0049 15.5843L39.6551 15.3406C39.2976 15.2799 38.858 15.3003 38.4645 15.551L28.613 21.3357L28.4259 22.0039L39.0607 41.7658L39.5847 42.0218C39.7643 41.9913 39.979 41.9302 40.174 41.8308L40.2004 41.8164L50.1309 35.9787Z" fill="url(#paint3_linear)" stroke="white" stroke-linejoin="bevel"/>
<path d="M51.0741 35.7695L51.1562 35.4038H51.2227V35.2363H51.1938L51.2239 35.1023L51.1535 34.9826L50.6354 35.1238L50.5121 34.9424L50.4417 34.9902L50.5485 35.1475L50.2227 35.2363V35.4038L50.3362 35.4639L50.2918 35.49L50.3622 35.6096L50.4802 35.5402L51.0036 35.8174L51.0741 35.7695Z" fill="url(#paint4_linear)" stroke="white" stroke-linejoin="bevel"/>
<path d="M49.9223 34.6884C49.8987 34.8567 49.7883 35.0183 49.623 35.1169C49.6227 35.1171 49.6223 35.1173 49.622 35.1175L39.7313 40.9217C39.6392 40.9673 39.5535 40.9951 39.4524 41.0098L39.0814 41.7365L39.2692 42.0953L39.9663 42.2941L50.9532 35.8105L51.1991 35.3799V35.2363L51.13 34.9826L50.8483 34.5041L49.9223 34.6884Z" fill="url(#paint5_linear)" stroke="white" stroke-linejoin="bevel"/>
<path d="M49.9223 34.6884C49.8987 34.8567 49.7883 35.0183 49.623 35.1169C49.6227 35.1171 49.6223 35.1173 49.622 35.1175L39.7313 40.9217C39.6392 40.9673 39.5535 40.9951 39.4524 41.0098L39.0814 41.7365L39.2692 42.0953L39.9663 42.2941L50.9532 35.8105L51.1991 35.3799V35.2363L51.13 34.9826L50.8483 34.5041L49.9223 34.6884Z" fill="url(#paint6_linear)" stroke="white" stroke-linejoin="bevel"/>
</g>
<defs>
<linearGradient id="paint0_linear" x1="43.375" y1="20.3108" x2="32.247" y2="37.4675" gradientUnits="userSpaceOnUse">
<stop stop-color="#41873F"/>
<stop offset="0.3288" stop-color="#418B3D"/>
<stop offset="0.6352" stop-color="#419637"/>
<stop offset="0.9319" stop-color="#3FA92D"/>
<stop offset="1" stop-color="#3FAE2A"/>
</linearGradient>
<linearGradient id="paint1_linear" x1="37.8478" y1="30.033" x2="65.2108" y2="15.4455" gradientUnits="userSpaceOnUse">
<stop offset="0.1376" stop-color="#41873F"/>
<stop offset="0.4032" stop-color="#54A044"/>
<stop offset="0.7136" stop-color="#66B848"/>
<stop offset="0.9081" stop-color="#6CC04A"/>
</linearGradient>
<linearGradient id="paint2_linear" x1="29.9906" y1="13.8573" x2="48.2868" y2="13.8573" gradientUnits="userSpaceOnUse">
<stop offset="0.0919165" stop-color="#6CC04A"/>
<stop offset="0.2864" stop-color="#66B848"/>
<stop offset="0.5968" stop-color="#54A044"/>
<stop offset="0.8624" stop-color="#41873F"/>
</linearGradient>
<linearGradient id="paint3_linear" x1="27.9183" y1="28.6696" x2="50.7882" y2="28.6696" gradientUnits="userSpaceOnUse">
<stop offset="0.0919165" stop-color="#6CC04A"/>
<stop offset="0.2864" stop-color="#66B848"/>
<stop offset="0.5968" stop-color="#54A044"/>
<stop offset="0.8624" stop-color="#41873F"/>
</linearGradient>
<linearGradient id="paint4_linear" x1="43.8812" y1="35.297" x2="50.7423" y2="35.297" gradientUnits="userSpaceOnUse">
<stop offset="0.0919165" stop-color="#6CC04A"/>
<stop offset="0.2864" stop-color="#66B848"/>
<stop offset="0.5968" stop-color="#54A044"/>
<stop offset="0.8624" stop-color="#41873F"/>
</linearGradient>
<linearGradient id="paint5_linear" x1="27.9183" y1="38.3302" x2="50.7882" y2="38.3302" gradientUnits="userSpaceOnUse">
<stop offset="0.0919165" stop-color="#6CC04A"/>
<stop offset="0.2864" stop-color="#66B848"/>
<stop offset="0.5968" stop-color="#54A044"/>
<stop offset="0.8624" stop-color="#41873F"/>
</linearGradient>
<linearGradient id="paint6_linear" x1="54.1201" y1="19.7599" x2="48.1109" y2="50.6577" gradientUnits="userSpaceOnUse">
<stop stop-color="#41873F"/>
<stop offset="0.3288" stop-color="#418B3D"/>
<stop offset="0.6352" stop-color="#419637"/>
<stop offset="0.9319" stop-color="#3FA92D"/>
<stop offset="1" stop-color="#3FAE2A"/>
</linearGradient>
</defs>
</svg>
